<svg width="256" height="256" viewBox="0 0 256 256" fill="none" xmlns="http://www.w3.org/2000/svg">
<rect width="256" height="256" rx="6.62069" fill="#09294C"/>
<path d="M136.824 169.931V86.069H177.074C184.878 86.069 191.606 87.3469 197.259 89.9027C202.992 92.4585 207.411 96.1324 210.517 100.925C213.622 105.637 215.175 111.228 215.175 117.697C215.175 124.166 213.622 129.757 210.517 134.469C207.411 139.182 202.992 142.856 197.259 145.491C191.606 148.047 184.878 149.325 177.074 149.325H152.47L165.011 137.225V169.931H136.824ZM165.011 140.34L152.47 127.521H175.283C179.184 127.521 182.051 126.642 183.882 124.885C185.793 123.128 186.749 120.732 186.749 117.697C186.749 114.662 185.793 112.266 183.882 110.509C182.051 108.752 179.184 107.873 175.283 107.873H152.47L165.011 95.0542V140.34Z" fill="white"/>
<path d="M206.158 169.542C201.255 169.542 197.281 165.556 197.281 160.639C197.281 155.721 201.256 151.735 206.158 151.735" fill="#3286E5"/>
<path d="M206.158 169.542C211.061 169.542 215.035 165.556 215.035 160.639C215.035 155.721 211.061 151.735 206.158 151.735" fill="#3286E5"/>
<path d="M40.8281 169.931V86.069H63.9989L106.518 137.105H95.769V86.069H123.239V169.931H100.069L57.5493 118.895H68.2986V169.931H40.8281Z" fill="white"/>
</svg>
