<svg width="16" height="16" viewBox="0 0 16 16" fill="none" xmlns="http://www.w3.org/2000/svg">
<rect width="16" height="16" rx="0.413793" fill="#09294C"/>
<path d="M8.55078 10.6207V5.37933H11.0664C11.5541 5.37933 11.9746 5.4592 12.328 5.61894C12.6863 5.77868 12.9625 6.0083 13.1566 6.30781C13.3506 6.60232 13.4477 6.95175 13.4477 7.35608C13.4477 7.76042 13.3506 8.10984 13.1566 8.40436C12.9625 8.69887 12.6863 8.9285 12.328 9.09323C11.9746 9.25296 11.5541 9.33283 11.0664 9.33283H9.52867L10.3125 8.57658V10.6207H8.55078ZM10.3125 8.77125L9.52867 7.97007H10.9544C11.1983 7.97007 11.3775 7.91516 11.4919 7.80534C11.6113 7.69552 11.6711 7.54577 11.6711 7.35608C11.6711 7.16639 11.6113 7.01664 11.4919 6.90682C11.3775 6.797 11.1983 6.74209 10.9544 6.74209H9.52867L10.3125 5.94091V8.77125Z" fill="white"/>
<path d="M12.8829 10.5964C12.5765 10.5964 12.3281 10.3473 12.3281 10.04C12.3281 9.73261 12.5766 9.48348 12.8829 9.48346" fill="#3286E5"/>
<path d="M12.8829 10.5964C13.1893 10.5964 13.4377 10.3473 13.4377 10.04C13.4377 9.73261 13.1893 9.48348 12.8829 9.48346" fill="#3286E5"/>
<path d="M2.55078 10.6207V5.37933H3.99895L6.65642 8.56909H5.98459V5.37933H7.70149V10.6207H6.25332L3.59585 7.43096H4.26768V10.6207H2.55078Z" fill="white"/>
</svg>
