<svg width="622" height="119" viewBox="0 0 622 119" fill="none" xmlns="http://www.w3.org/2000/svg">
<path d="M607.362 94.2867C603.832 94.2867 601.058 94.0346 599.041 93.152C595.132 91.639 593.619 88.1088 593.619 80.7961C593.619 69.9532 597.528 67.4316 607.362 67.4316C617.322 67.4316 621.231 69.9532 621.231 80.7961C621.231 91.2608 617.322 94.2867 607.362 94.2867Z" fill="#3286E5"/>
<path d="M533.039 118.637L533.039 99.3464L542.243 99.3464C545.269 99.3464 547.412 99.0942 549.303 98.5899C552.834 97.5812 554.725 95.1857 556.616 90.2686L557.625 87.6209L529.383 17.7725L553.212 17.7725L568.972 60.8919L584.228 17.7725L607.426 17.7725L577.293 94.8075C573.259 104.894 569.981 110.946 565.442 114.35C560.651 117.754 554.473 118.637 544.386 118.637L533.039 118.637Z" fill="white"/>
<path d="M506.002 78.6695C501.842 86.9908 494.025 92.7904 480.282 92.7904C464.396 92.7904 456.705 85.2256 456.705 73.1219C456.705 64.1702 460.361 58.6227 466.287 54.9664C468.304 53.8317 470.196 52.6969 472.213 52.0665C476.248 50.5536 481.291 49.5449 489.234 48.4102C500.329 46.8973 504.868 45.7625 504.868 40.9715C504.868 36.6848 502.472 33.911 494.529 33.911C486.586 33.911 482.678 37.4412 482.299 44.5017L458.975 44.5017C460.109 27.4809 471.583 16.2598 494.529 16.2598C502.598 16.2598 509.028 17.3945 513.819 19.79C523.654 24.3289 527.436 32.9024 527.436 44.2496L527.436 90.8992L508.524 90.8992L506.002 78.6695ZM489.612 76.0218C492.638 76.0218 495.286 75.3914 497.681 73.8784C502.22 70.9786 504.994 66.3136 504.994 61.5226L504.994 57.1098C502.85 58.7488 499.572 59.6314 495.16 60.5139C488.856 61.6486 486.586 62.279 484.191 63.792C482.173 65.305 481.165 67.1962 481.165 69.5917C481.165 73.7523 484.065 76.0218 489.612 76.0218Z" fill="white"/>
<path d="M421.372 92.2861C410.529 92.2861 403.721 87.8733 400.064 80.3085L400.064 118.602L377.496 118.602L377.496 17.7727L397.039 17.7727L399.182 30.3807C402.838 21.8073 410.151 16.2598 421.246 16.2598C439.275 16.2598 450.118 28.9939 450.118 54.2099L450.118 56.3533C450.118 64.6746 448.857 71.2307 446.336 76.6522C441.419 87.2429 432.467 92.2861 421.372 92.2861ZM413.555 73.1219C422.002 73.1219 427.424 67.4483 427.424 55.975L427.424 54.2099C427.424 41.2236 421.624 35.6761 413.681 35.6761C405.36 35.6761 399.812 41.728 399.812 54.0838L399.812 55.7229C399.812 67.0701 405.234 73.1219 413.555 73.1219Z" fill="white"/>
<path d="M319.748 90.8988L319.748 17.7723L338.156 17.7723L341.308 32.7759C343.703 21.3026 351.016 16.7637 364.254 16.7637L368.415 16.7637L368.415 40.845L359.842 40.845C355.429 40.845 352.025 41.4754 349.503 42.6101C344.712 44.7535 343.199 49.6706 343.199 58.4962L343.199 90.8988L319.748 90.8988Z" fill="white"/>
<path d="M309.84 67.7005C305.805 83.0823 294.584 92.7904 273.151 92.7904C247.682 92.7904 235.957 78.7955 235.957 56.1011L235.957 53.9577C235.957 46.0147 237.47 39.3324 240.622 33.7849C246.926 22.4377 258.273 16.2598 273.529 16.2598C282.102 16.2598 289.163 17.8988 294.584 21.303C305.427 28.1113 310.344 39.4585 310.344 52.823L310.344 61.0182L258.778 61.0182C259.912 70.096 264.829 74.6349 273.781 74.6349C280.211 74.6349 283.867 71.8611 285.507 67.7005L309.84 67.7005ZM273.781 33.6588C265.334 33.6588 260.291 37.8195 258.778 46.6451L287.65 46.6451C286.641 38.3238 282.355 33.6588 273.781 33.6588Z" fill="white"/>
<path d="M187.372 90.899L160.139 17.7725L183.716 17.7725L198.341 62.1527L213.218 17.7725L236.922 17.7725L208.553 90.899L187.372 90.899Z" fill="white"/>
<path d="M160.244 67.7005C156.21 83.0823 144.989 92.7904 123.555 92.7904C98.0868 92.7904 86.3613 78.7955 86.3613 56.1011L86.3613 53.9577C86.3613 46.0147 87.8743 39.3324 91.0263 33.7849C97.3303 22.4377 108.678 16.2598 123.933 16.2598C132.507 16.2598 139.567 17.8988 144.989 21.303C155.832 28.1113 160.749 39.4585 160.749 52.823L160.749 61.0182L109.182 61.0182C110.317 70.096 115.234 74.6349 124.185 74.6349C130.615 74.6349 134.272 71.8611 135.911 67.7005L160.244 67.7005ZM124.185 33.6588C115.738 33.6588 110.695 37.8195 109.182 46.6451L138.054 46.6451C137.046 38.3238 132.759 33.6588 124.185 33.6588Z" fill="white"/>
<path d="M21.5597 36.685L21.5597 90.8995L-3.95149e-06 90.8995L0 0.5L21.6858 0.500001L54.7188 53.8319L54.7188 0.500002L76.2785 0.500003L76.2785 90.8995L55.2231 90.8995L21.5597 36.685Z" fill="white"/>
</svg>
