<svg width="250" height="48" viewBox="0 0 250 48" fill="none" xmlns="http://www.w3.org/2000/svg">
<path d="M244.419 37.7418C242.998 37.7418 241.882 37.6403 241.07 37.2851C239.498 36.6763 238.889 35.2556 238.889 32.3128C238.889 27.9493 240.462 26.9346 244.419 26.9346C248.427 26.9346 250 27.9493 250 32.3128C250 36.5241 248.427 37.7418 244.419 37.7418Z" fill="#3286E5"/>
<path d="M214.509 47.5416L214.509 39.7787L218.212 39.7787C219.43 39.7787 220.293 39.6772 221.054 39.4743C222.474 39.0684 223.235 38.1044 223.997 36.1256L224.402 35.0601L213.037 6.95117L222.627 6.95117L228.969 24.3036L235.108 6.95117L244.444 6.95117L232.318 37.9521C230.694 42.0112 229.375 44.4466 227.548 45.8165C225.62 47.1865 223.134 47.5416 219.075 47.5416L214.509 47.5416Z" fill="#012854"/>
<path d="M203.63 31.4572C201.955 34.8059 198.809 37.1398 193.279 37.1398C186.886 37.1398 183.791 34.0955 183.791 29.2247C183.791 25.6223 185.262 23.3898 187.647 21.9184C188.459 21.4617 189.22 21.0051 190.032 20.7514C191.655 20.1426 193.685 19.7367 196.881 19.28C201.346 18.6712 203.173 18.2145 203.173 16.2865C203.173 14.5614 202.209 13.4451 199.012 13.4451C195.816 13.4451 194.243 14.8658 194.091 17.7071L184.704 17.7071C185.161 10.8575 189.778 6.3418 199.012 6.3418C202.26 6.3418 204.847 6.79844 206.775 7.76246C210.733 9.58904 212.255 13.0392 212.255 17.6057L212.255 36.3787L204.644 36.3787L203.63 31.4572ZM197.034 30.3917C198.251 30.3917 199.317 30.138 200.281 29.5291C202.107 28.3621 203.224 26.4848 203.224 24.5568L203.224 22.7809C202.361 23.4405 201.042 23.7957 199.266 24.1509C196.729 24.6075 195.816 24.8612 194.852 25.4701C194.04 26.0789 193.634 26.84 193.634 27.804C193.634 29.4784 194.801 30.3917 197.034 30.3917Z" fill="#012854"/>
<path d="M169.571 36.9369C165.207 36.9369 162.468 35.161 160.996 32.1167L160.996 47.5271L151.914 47.5271L151.914 6.95065L159.778 6.95065L160.641 12.0245C162.112 8.57427 165.055 6.3418 169.52 6.3418C176.776 6.3418 181.139 11.4663 181.139 21.614L181.139 22.4765C181.139 25.8252 180.632 28.4636 179.617 30.6453C177.638 34.9073 174.036 36.9369 169.571 36.9369ZM166.425 29.2247C169.825 29.2247 172.006 26.9415 172.006 22.3243L172.006 21.614C172.006 16.3879 169.672 14.1555 166.476 14.1555C163.127 14.1555 160.895 16.5909 160.895 21.5632L160.895 22.2228C160.895 26.7892 163.076 29.2247 166.425 29.2247Z" fill="#012854"/>
<path d="M128.676 36.3789L128.676 6.95082L136.084 6.95082L137.352 12.9887C138.316 8.37149 141.259 6.54492 146.586 6.54492L148.261 6.54492L148.261 16.2359L144.81 16.2359C143.035 16.2359 141.665 16.4896 140.65 16.9462C138.722 17.8088 138.113 19.7876 138.113 23.3392L138.113 36.3789L128.676 36.3789Z" fill="#012854"/>
<path d="M124.688 27.0429C123.064 33.233 118.548 37.1398 109.923 37.1398C99.6737 37.1398 94.9551 31.5079 94.9551 22.375L94.9551 21.5125C94.9551 18.316 95.5639 15.6269 96.8324 13.3944C99.3693 8.82796 103.936 6.3418 110.075 6.3418C113.525 6.3418 116.367 7.00139 118.548 8.37132C122.912 11.1112 124.891 15.6776 124.891 21.0558L124.891 24.3538L104.139 24.3538C104.595 28.007 106.574 29.8335 110.176 29.8335C112.764 29.8335 114.236 28.7173 114.895 27.0429L124.688 27.0429ZM110.176 13.3437C106.777 13.3437 104.748 15.018 104.139 18.5697L115.758 18.5697C115.352 15.221 113.627 13.3437 110.176 13.3437Z" fill="#012854"/>
<path d="M75.4028 36.3793L64.4434 6.95117L73.9314 6.95117L79.817 24.811L85.8041 6.95117L95.3429 6.95117L83.9268 36.3793L75.4028 36.3793Z" fill="#012854"/>
<path d="M64.4864 27.0429C62.8628 33.233 58.3471 37.1398 49.7216 37.1398C39.4726 37.1398 34.7539 31.5079 34.7539 22.375L34.7539 21.5125C34.7539 18.316 35.3628 15.6269 36.6312 13.3944C39.1681 8.82796 43.7346 6.3418 49.8739 6.3418C53.3241 6.3418 56.1654 7.00139 58.3471 8.37132C62.7106 11.1112 64.6894 15.6776 64.6894 21.0558L64.6894 24.3538L43.9375 24.3538C44.3941 28.007 46.3729 29.8335 49.9753 29.8335C52.563 29.8335 54.0344 28.7173 54.694 27.0429L64.4864 27.0429ZM49.9753 13.3437C46.5759 13.3437 44.5464 15.018 43.9375 18.5697L55.5565 18.5697C55.1506 15.221 53.4255 13.3437 49.9753 13.3437Z" fill="#012854"/>
<path d="M8.67621 14.5618L8.67621 36.3792L-1.59019e-06 36.3792L0 0L8.72695 3.81467e-07L22.0203 21.4622L22.0203 9.62539e-07L30.6965 1.34179e-06L30.6965 36.3792L22.2233 36.3792L8.67621 14.5618Z" fill="#012854"/>
</svg>
